# xmcd CD database file
#
# Track frame offsets:
#	150
#	35738
#	62580
#	83657
#	109783
#	128642
#	162930
#	187870
#
# Disc length: 3191 seconds
#
# Revision: 0
# Processed by: cddbd v1.5.2PL0 Copyright (c) Steve Scherf et al.
# Submitted via: CDex 1.77
#
DISCID=5d0c7508
DTITLE=Rolf Jardemark - toco
DYEAR=1999
DGENRE=Jazz
TTITLE0=Margaux
TTITLE1=7th on the scale
TTITLE2=Madimabe
TTITLE3=One year later
TTITLE4=Room 303
TTITLE5=Cucumber groove
TTITLE6=5678
TTITLE7=X Lana
EXTD=YEAR: 1999
EXTT0=
EXTT1=
EXTT2=
EXTT3=
EXTT4=
EXTT5=
EXTT6=
EXTT7=
PLAYORDER=
